<svg width="36" height="34" viewBox="0 0 36 34" fill="none" xmlns="http://www.w3.org/2000/svg">
<path d="M36 17.6363V15.517H33.0948C32.796 12.2567 31.5972 2.84341 27.5184 0.540402C26.6292 0.035296 25.1712 -0.370909 23.2956 0.547467C22.9464 0.720545 21.8664 1.31042 20.0844 2.30298L23.2428 4.01655C23.3674 4.08417 23.4772 4.17538 23.5657 4.28491C23.6541 4.39442 23.7196 4.52007 23.7582 4.65458C23.7969 4.78908 23.808 4.92978 23.7909 5.06852C23.7738 5.20726 23.7288 5.34129 23.6586 5.46286C23.5184 5.70587 23.2858 5.88451 23.0117 5.95972C22.7376 6.03492 22.4444 6.00057 22.196 5.86419C19.6466 4.4636 12.7414 0.671193 12.492 0.547442C10.6164 -0.370933 9.15843 0.0352712 8.26918 0.540378C4.1904 2.84338 2.99163 12.2567 2.6928 15.517H0V17.6363H36Z" fill="#343439"/>
<path d="M22.6149 21.5952C23.8444 20.6702 25.3499 20.1678 26.8993 20.1654C28.269 20.1649 29.6091 20.556 30.7559 21.2907C31.9028 22.0253 32.8067 23.072 33.3572 24.3025C33.9077 25.5331 34.081 26.8943 33.8558 28.2199C33.6306 29.5455 33.0168 30.778 32.0893 31.7669C31.1618 32.7557 29.9608 33.4581 28.6331 33.7881C27.3054 34.1182 25.9084 34.0616 24.6129 33.6254C23.3174 33.189 22.1795 32.3919 21.3382 31.3315C20.4969 30.271 19.9887 28.993 19.8756 27.6537C19.3393 27.1785 18.6385 26.9218 17.9159 26.9363C17.1935 26.9507 16.5038 27.2351 15.9877 27.7314C15.826 29.4471 15.0153 31.0412 13.7154 32.1997C12.4155 33.3582 10.7205 33.997 8.96447 33.9904C7.20837 33.9839 5.51847 33.3323 4.22762 32.1641C2.93676 30.996 2.13855 29.3958 1.99021 27.6789C1.84188 25.9621 2.35418 24.2529 3.4262 22.8882C4.49821 21.5235 6.05223 20.6021 7.78215 20.3056C9.51201 20.0091 11.2924 20.3589 12.7725 21.2861C14.2526 22.2134 15.3251 23.6508 15.7789 25.3153C16.4505 24.9948 17.1866 24.8255 17.9335 24.82C18.6803 24.8145 19.4189 24.9729 20.0954 25.2836C20.5 23.8162 21.3853 22.5201 22.6149 21.5952Z" fill="#343439"/>
</svg>
