<svg width="20" height="20" viewBox="0 0 20 20" fill="none" xmlns="http://www.w3.org/2000/svg">
<circle cx="6.25" cy="6.25" r="1" fill="#C93329"/>
<circle cx="10" cy="6.25" r="1" fill="#C93329"/>
<circle cx="13.75" cy="6.25" r="1" fill="#C93329"/>
<path d="M7.49992 14.5833C7.49992 15.7339 6.56718 16.6667 5.41659 16.6667C4.26599 16.6667 3.33325 15.7339 3.33325 14.5833C3.33325 13.4327 4.26599 12.5 5.41659 12.5C6.56718 12.5 7.49992 13.4327 7.49992 14.5833ZM7.49992 14.5833H12.6041M15.8333 16.6667V14.7917C15.8333 14.6766 15.74 14.5833 15.6249 14.5833M12.6041 14.5833H15.6249M12.6041 14.5833V16.6667Mnan nanL15.6249 14.5833M15.6249 14.5833Lnan nan" stroke="#C93329" stroke-width="2" stroke-linecap="round" stroke-linejoin="round"/>
<rect x="2.5" y="3.3335" width="15" height="5.83333" rx="2" stroke="#C93329" stroke-width="2"/>
</svg>
