<svg width="20" height="20" viewBox="0 0 20 20" fill="none" xmlns="http://www.w3.org/2000/svg">
<path d="M8.33333 17.4999L5.98968 15.8258C3.79971 14.2616 2.5 11.736 2.5 9.04471L2.5 4.79511C2.5 4.42304 2.74665 4.09605 3.1044 3.99384L8.1044 2.56527C8.25403 2.52252 8.41264 2.52252 8.56227 2.56527L13.5623 3.99384C13.92 4.09605 14.1667 4.42304 14.1667 4.79511V6.24986M15.8333 12.4999V10.8332C15.8333 9.91272 15.0871 9.16652 14.1667 9.16652C13.2462 9.16652 12.5 9.91272 12.5 10.8332V12.4999M15.8333 12.4999H12.5M15.8333 12.4999C16.7538 12.4999 17.5 13.246 17.5 14.1665V15.8332C17.5 16.7537 16.7538 17.4999 15.8333 17.4999H12.5C11.5795 17.4999 10.8333 16.7537 10.8333 15.8332V14.1665C10.8333 13.246 11.5795 12.4999 12.5 12.4999" stroke="black" stroke-width="2" stroke-linecap="round" stroke-linejoin="round"/>
</svg>
