<svg width="24" height="24" viewBox="0 0 24 24" fill="none" xmlns="http://www.w3.org/2000/svg">
<path d="M13.6952 6.11125L14.6213 5.73396C14.5147 5.47243 14.3026 5.26814 14.0372 5.17156L13.6952 6.11125ZM11.064 5.15359L11.4061 4.2139C11.1127 4.10713 10.7863 4.14348 10.5236 4.31219C10.261 4.48089 10.0921 4.76259 10.0672 5.07378L11.064 5.15359ZM15.2689 9.97412L14.3428 10.3514C14.4576 10.6331 14.6944 10.8473 14.9862 10.9333L15.2689 9.97412ZM16.3981 10.307L16.6808 9.34776L16.6808 9.34776L16.3981 10.307ZM5.75984 10.1757L4.76639 10.29C4.8097 10.6663 5.06189 10.9858 5.41782 11.1153L5.75984 10.1757ZM5.64054 9.13904L6.63398 9.0247C6.59067 8.64842 6.33849 8.32889 5.98256 8.19934L5.64054 9.13904ZM5.64052 9.13903L4.64708 9.25336C4.69038 9.62965 4.94257 9.94917 5.2985 10.0787L5.64052 9.13903ZM5.40192 7.06568L6.39537 6.95136L6.39537 6.95136L5.40192 7.06568ZM5.16332 4.99237L5.50534 4.05268C5.17966 3.93415 4.81583 3.99269 4.54378 4.20741C4.27173 4.42213 4.13025 4.7624 4.16988 5.1067L5.16332 4.99237ZM7.79446 5.95003L8.7879 5.8357C8.7446 5.45941 8.49241 5.13989 8.13648 5.01034L7.79446 5.95003ZM8.01137 7.83486L7.01792 7.94918C7.06381 8.34791 7.34365 8.68057 7.72863 8.79405L8.01137 7.83486ZM10.7839 8.6521L10.5012 9.6113C10.7901 9.69647 11.102 9.64685 11.3503 9.47624C11.5986 9.30562 11.7567 9.03219 11.7807 8.73192L10.7839 8.6521ZM14.0372 5.17156L11.4061 4.2139L10.722 6.09328L13.3531 7.05094L14.0372 5.17156ZM16.195 9.59683L14.6213 5.73396L12.7691 6.48854L14.3428 10.3514L16.195 9.59683ZM16.6808 9.34776L15.5516 9.01492L14.9862 10.9333L16.1153 11.2662L16.6808 9.34776ZM19.497 14.9257C20.3427 12.6022 19.0526 10.0469 16.6808 9.34776L16.1153 11.2662C17.3805 11.6391 18.0687 13.0022 17.6176 14.2417L19.497 14.9257ZM17.9144 15.6637C18.5552 15.897 19.2638 15.5666 19.497 14.9257L17.6176 14.2417C17.7622 13.8446 18.2013 13.6398 18.5984 13.7843L17.9144 15.6637ZM5.41782 11.1153L17.9144 15.6637L18.5984 13.7843L6.10186 9.23596L5.41782 11.1153ZM4.64709 9.25337L4.76639 10.29L6.75328 10.0613L6.63398 9.0247L4.64709 9.25337ZM5.98256 8.19934L5.98254 8.19934L5.2985 10.0787L5.29852 10.0787L5.98256 8.19934ZM6.63397 9.02471L6.39537 6.95136L4.40848 7.18001L4.64708 9.25336L6.63397 9.02471ZM6.39537 6.95136L6.15676 4.87805L4.16988 5.1067L4.40848 7.18001L6.39537 6.95136ZM4.8213 5.93207L7.45244 6.88972L8.13648 5.01034L5.50534 4.05268L4.8213 5.93207ZM6.80102 6.06436L7.01792 7.94918L9.00481 7.72053L8.7879 5.8357L6.80102 6.06436ZM11.0666 7.69291L8.29411 6.87566L7.72863 8.79405L10.5012 9.6113L11.0666 7.69291ZM10.0672 5.07378L9.7871 8.57229L11.7807 8.73192L12.0608 5.23341L10.0672 5.07378Z" fill="#57A41B"/>
<path d="M4.53418 18.5332L19.4675 18.5332" stroke="#57A41B" stroke-width="2" stroke-linecap="round" stroke-linejoin="round"/>
</svg>
