<svg width="18" height="18" viewBox="0 0 18 18" fill="none" xmlns="http://www.w3.org/2000/svg">
<path d="M16.6556 1.84136C16.5685 1.7661 16.4624 1.71605 16.3489 1.6966C16.2355 1.67714 16.1188 1.68903 16.0116 1.73096L1.76203 7.30745C1.56009 7.38598 1.38911 7.52798 1.27486 7.71209C1.1606 7.8962 1.10924 8.11244 1.12851 8.32826C1.14779 8.54408 1.23665 8.7478 1.38172 8.90874C1.52679 9.06969 1.72023 9.17915 1.93289 9.22065L5.625 9.94557V14.0624C5.62427 14.2866 5.69091 14.5059 5.81628 14.6918C5.94165 14.8777 6.11997 15.0217 6.32813 15.1051C6.53596 15.19 6.76453 15.2103 6.9841 15.1636C7.20367 15.1168 7.40409 15.005 7.5593 14.8428L9.33961 12.9964L12.1641 15.4686C12.3678 15.6494 12.6307 15.7494 12.903 15.7499C13.0224 15.7498 13.141 15.731 13.2546 15.6943C13.4402 15.6354 13.6071 15.529 13.7388 15.3855C13.8704 15.242 13.9621 15.0666 14.0048 14.8766L16.8588 2.46081C16.8844 2.34884 16.8789 2.23203 16.8431 2.1229C16.8073 2.01378 16.7425 1.91645 16.6556 1.84136ZM12.3567 4.37261L6.05742 8.88386L2.56992 8.19972L12.3567 4.37261ZM6.75 14.0624V10.7239L8.49305 12.2525L6.75 14.0624ZM12.9045 14.6249L7.09102 9.52722L15.4582 3.53026L12.9045 14.6249Z" fill="#1B62A4"/>
</svg>
