<svg width="32" height="32" viewBox="0 0 32 32" fill="none" xmlns="http://www.w3.org/2000/svg">
<path d="M16.0007 3.36841C14.2103 3.37008 12.4937 4.05769 11.2278 5.28029C9.96193 6.50289 9.25013 8.16057 9.24868 9.88945C9.25099 11.618 9.96332 13.275 11.2294 14.4969C12.4954 15.7189 14.2118 16.4059 16.0018 16.4073C17.7914 16.4054 19.5072 15.7181 20.7728 14.4962C22.0384 13.2743 22.7504 11.6176 22.7527 9.88945C22.7513 8.16076 22.0396 6.50323 20.774 5.28066C19.5083 4.05809 17.7909 3.37036 16.0007 3.36841ZM16.0007 7.18946C16.7421 7.19001 17.453 7.47466 17.9772 7.98088C18.5014 8.48711 18.7962 9.17354 18.7968 9.88945C18.7956 10.6049 18.5008 11.2908 17.9769 11.7967C17.453 12.3026 16.7427 12.5873 16.0018 12.5884C15.2607 12.5876 14.5502 12.303 14.026 11.797C13.5019 11.2911 13.2069 10.6051 13.2057 9.88945C13.2066 9.17372 13.5015 8.48756 14.0257 7.98156C14.5499 7.47556 15.2606 7.19107 16.0018 7.19051L16.0007 7.18946ZM10.3399 16.6315C9.91595 16.6437 9.5073 16.7871 9.17425 17.0407C8.84119 17.2942 8.60138 17.6444 8.4902 18.0396C8.37903 18.4348 8.40238 18.8541 8.55682 19.2355C8.71125 19.6169 8.98858 19.9403 9.34788 20.1579C10.5542 20.8901 11.8798 21.4203 13.2689 21.7263L9.49504 25.3715C9.1334 25.7317 8.93296 26.2148 8.93702 26.7164C8.94107 27.2181 9.1493 27.698 9.51672 28.0527C9.88415 28.4074 10.3813 28.6082 10.9008 28.612C11.4203 28.6157 11.9205 28.4219 12.2933 28.0726L16.0007 24.4905L19.7125 28.0726C19.896 28.2498 20.1139 28.3904 20.3536 28.4863C20.5934 28.5822 20.8504 28.6316 21.11 28.6316C21.3695 28.6316 21.6265 28.5822 21.8663 28.4863C22.1061 28.3904 22.3239 28.2498 22.5075 28.0726C23.2814 27.3263 23.2814 26.1168 22.5075 25.3715L18.7336 21.7273C20.1224 21.4216 21.4478 20.8913 22.6535 20.1589C22.8735 20.0254 23.064 19.8513 23.2143 19.6467C23.3646 19.442 23.4717 19.2108 23.5295 18.9662C23.5872 18.7216 23.5945 18.4684 23.5509 18.221C23.5073 17.9737 23.4137 17.7371 23.2754 17.5247C23.1371 17.3123 22.9569 17.1283 22.745 16.9832C22.533 16.838 22.2936 16.7346 22.0403 16.6789C21.7869 16.6231 21.5247 16.6161 21.2686 16.6582C21.0125 16.7003 20.7674 16.7906 20.5475 16.9242C19.1844 17.747 17.6093 18.1832 16.0018 18.1832C14.3943 18.1832 12.8192 17.747 11.4561 16.9242C11.1095 16.7137 10.7214 16.6189 10.3399 16.6315Z" fill="#EF8E1D"/>
</svg>
