<svg width="32" height="32" viewBox="0 0 32 32" fill="none" xmlns="http://www.w3.org/2000/svg">
<path d="M19.8 16C19.8 18.0947 18.0947 19.8 16 19.8C13.9053 19.8 12.2 18.0947 12.2 16C12.2 13.9053 13.9053 12.2 16 12.2C18.0947 12.2 19.8 13.9053 19.8 16ZM16 3.36841C9.03474 3.36841 3.36842 9.03472 3.36842 16C3.36842 22.9653 9.03474 28.6316 16 28.6316C18.5516 28.6316 21.0116 27.8716 23.1158 26.4347L23.1516 26.4095L21.4495 24.4316L21.4211 24.4495C19.8049 25.4907 17.9226 26.0437 16 26.0421C10.4632 26.0421 5.9579 21.5368 5.9579 16C5.9579 10.4631 10.4632 5.95788 16 5.95788C21.5368 5.95788 26.0421 10.4631 26.0421 16C26.0406 16.7257 25.9612 17.4491 25.8053 18.1579C25.4884 19.4621 24.5747 19.861 23.8895 19.8084C23.2011 19.7526 22.3947 19.261 22.3884 18.06V16C22.3868 14.3061 21.7132 12.682 20.5155 11.4842C19.3178 10.2863 17.6939 9.61246 16 9.61051C14.3059 9.61219 12.6817 10.2859 11.4838 11.4838C10.2859 12.6817 9.6122 14.3059 9.61053 16C9.6122 17.6941 10.2859 19.3183 11.4838 20.5162C12.6817 21.7141 14.3059 22.3878 16 22.3895C16.8419 22.3915 17.6759 22.2257 18.453 21.9019C19.2302 21.578 19.935 21.1025 20.5263 20.5031C20.9001 21.0901 21.4169 21.5723 22.0282 21.9047C22.6395 22.237 23.3253 22.4086 24.0211 22.4031C24.9411 22.4031 25.8526 22.0958 26.5863 21.5389C27.3432 20.9631 27.9084 20.1326 28.2211 19.1337C28.2705 18.9716 28.3632 18.6031 28.3632 18.6L28.3653 18.5863C28.5495 17.7863 28.6316 16.9863 28.6316 16C28.6316 9.03472 22.9653 3.36841 16 3.36841Z" fill="#FF9E00"/>
</svg>
