<svg width="18" height="18" viewBox="0 0 18 18" fill="none" xmlns="http://www.w3.org/2000/svg">
<path d="M3 3L15 15" stroke="black" stroke-width="2" stroke-linecap="round"/>
<path fill-rule="evenodd" clip-rule="evenodd" d="M4.45176 4.36597C3.07891 5.27491 1.99401 6.58339 1.36262 8.12501C1.13303 8.68559 1.13303 9.31441 1.36262 9.87499C2.59358 12.8806 5.54839 15 9 15C10.7255 15 12.3269 14.4703 13.6508 13.565L12.5673 12.4815C11.532 13.1271 10.3094 13.5 9 13.5C6.1781 13.5 3.75892 11.7682 2.75071 9.30648C2.67033 9.11022 2.67033 8.88978 2.75071 8.69352C3.30705 7.33514 4.29303 6.19899 5.53922 5.45344L4.45176 4.36597ZM6.922 6.83622C6.35371 7.38212 6 8.14975 6 9C6 10.6569 7.34315 12 9 12C9.85025 12 10.6179 11.6463 11.1638 11.078L10.1027 10.0169C9.82862 10.314 9.43604 10.5 9 10.5C8.17157 10.5 7.5 9.82843 7.5 9C7.5 8.56396 7.68605 8.17138 7.9831 7.89731L6.922 6.83622ZM11.9988 9.08462L8.91538 6.00117C8.94349 6.00039 8.9717 6 9 6C10.6569 6 12 7.34315 12 9C12 9.0283 11.9996 9.05651 11.9988 9.08462ZM14.0937 11.1795C14.5746 10.6269 14.9672 9.99527 15.2493 9.30648C15.3297 9.11022 15.3297 8.88978 15.2493 8.69352C14.2411 6.23185 11.8219 4.5 9 4.5C8.50822 4.5 8.02868 4.5526 7.5667 4.65249L6.34928 3.43507C7.18113 3.153 8.07263 3 9 3C12.4516 3 15.4064 5.11944 16.6374 8.12502C16.867 8.6856 16.867 9.31441 16.6374 9.87499C16.2794 10.7491 15.7756 11.5482 15.1562 12.242L14.0937 11.1795Z" fill="black"/>
</svg>
