<svg width="18" height="18" viewBox="0 0 18 18" fill="none" xmlns="http://www.w3.org/2000/svg">
<path d="M2.05667 9.59073L1.36262 9.87499L2.05667 9.59073ZM2.75072 8.69352C3.75892 6.23184 6.1781 4.5 9 4.5V3C5.54839 3 2.59359 5.11944 1.36262 8.12501L2.75072 8.69352ZM9 4.5C11.8219 4.5 14.2411 6.23185 15.2493 8.69352L16.6374 8.12502C15.4064 5.11944 12.4516 3 9 3V4.5ZM15.2493 9.30648C14.2411 11.7682 11.8219 13.5 9 13.5V15C12.4516 15 15.4064 12.8806 16.6374 9.87499L15.2493 9.30648ZM9 13.5C6.1781 13.5 3.75892 11.7682 2.75071 9.30648L1.36262 9.87499C2.59358 12.8806 5.54839 15 9 15V13.5ZM15.2493 8.69352C15.3297 8.88978 15.3297 9.11022 15.2493 9.30648L16.6374 9.87499C16.867 9.31441 16.867 8.6856 16.6374 8.12502L15.2493 8.69352ZM1.36262 8.12501C1.13303 8.68559 1.13303 9.31441 1.36262 9.87499L2.75071 9.30648C2.67033 9.11022 2.67033 8.88978 2.75072 8.69352L1.36262 8.12501Z" fill="black"/>
<circle cx="9" cy="9" r="2.25" stroke="black" stroke-width="1.5" stroke-linecap="round" stroke-linejoin="round"/>
</svg>
