<svg width="20" height="20" viewBox="0 0 20 20" fill="none" xmlns="http://www.w3.org/2000/svg">
<path d="M13.3333 8.33333V5.83333C13.3333 3.99238 11.8409 2.5 10 2.5C8.15905 2.5 6.66667 3.99238 6.66667 5.83333V8.33333M10 11.6667V14.1667M15 12.5C15 15.2614 12.7614 17.5 10 17.5C7.23858 17.5 5 15.2614 5 12.5C5 9.73858 7.23858 7.5 10 7.5C12.7614 7.5 15 9.73858 15 12.5ZM10.8333 11.6667C10.8333 12.1269 10.4602 12.5 10 12.5C9.53976 12.5 9.16667 12.1269 9.16667 11.6667C9.16667 11.2064 9.53976 10.8333 10 10.8333C10.4602 10.8333 10.8333 11.2064 10.8333 11.6667Z" stroke="black" stroke-width="1.5" stroke-linecap="round" stroke-linejoin="round"/>
</svg>
