<svg width="10" height="10" viewBox="0 0 10 10" fill="none" xmlns="http://www.w3.org/2000/svg">
<path d="M8.75 4.58366L8.75 7.33366C8.75 7.88594 8.30228 8.33366 7.75 8.33366L2.25 8.33366C1.69772 8.33366 1.25 7.88594 1.25 7.33366L1.25 3.91699C1.25 3.36471 1.69772 2.91699 2.25 2.91699L2.625 2.91699C2.93976 2.91699 3.23615 2.7688 3.425 2.51699L3.7625 2.06699C3.95135 1.81519 4.24774 1.66699 4.5625 1.66699L5.52083 1.66699" stroke="#57A41B" stroke-linecap="round" stroke-linejoin="round"/>
<path d="M7.70866 1.66699V2.70866M7.70866 3.75033V2.70866M7.70866 2.70866H6.66699M7.70866 2.70866L8.75033 2.70866" stroke="#57A41B" stroke-linecap="round" stroke-linejoin="round"/>
<ellipse cx="4.99967" cy="5.41667" rx="1.66667" ry="1.66667" stroke="#57A41B" stroke-linecap="round" stroke-linejoin="round"/>
</svg>
