<svg width="8" height="8" viewBox="0 0 8 8" fill="none" xmlns="http://www.w3.org/2000/svg">
<g clip-path="url(#clip0_751_11794)">
<path d="M6.51219 0L1.48781 0C0.666516 0.000953125 0.000953125 0.666516 0 1.48781L0 6.51219C0.000953125 7.33348 0.666516 7.99905 1.48781 8H6.51219C7.33348 7.99905 7.99905 7.33348 8 6.51219L8 1.48781C7.99905 0.666516 7.33348 0.000953125 6.51219 0ZM7.44773 1.48781V1.97017L6.04869 1.97017L5.00234 0.552266L6.5122 0.552266C7.02864 0.552844 7.44716 0.971359 7.44773 1.48781ZM4.31597 0.552266L5.36231 1.97017L3.68403 1.97017L2.63769 0.552266L4.31597 0.552266ZM0.552266 1.48781C0.552844 0.971375 0.971359 0.552859 1.48781 0.552266H1.95133L2.99767 1.97017L0.552266 1.97017V1.48781ZM6.51219 7.44773L1.48781 7.44773C0.971375 7.44716 0.552859 7.02864 0.552266 6.51219L0.552266 2.52245L7.44773 2.52245L7.44773 6.51219C7.44714 7.02862 7.02862 7.44714 6.51219 7.44773Z" fill="white"/>
<path d="M5.47284 4.74559L3.28823 3.48431C3.15615 3.40806 2.98727 3.45331 2.91102 3.58538C2.88679 3.62737 2.87402 3.67498 2.87402 3.72346L2.87402 6.24604C2.87402 6.39854 2.99765 6.52218 3.15015 6.52218C3.19862 6.52218 3.24624 6.50943 3.28823 6.48518L5.47284 5.22388C5.60491 5.14763 5.65016 4.97876 5.57391 4.84668C5.54966 4.80468 5.5148 4.76982 5.47284 4.74559ZM3.42629 5.76776L3.42629 4.20173L4.78251 4.98473L3.42629 5.76776Z" fill="white"/>
</g>
<defs>
<clipPath id="clip0_751_11794">
<rect width="8" height="8" fill="white"/>
</clipPath>
</defs>
</svg>
