<svg width="176" height="176" viewBox="0 0 176 176" fill="none" xmlns="http://www.w3.org/2000/svg">
<path d="M50.0037 143.148C49.4382 143.148 48.8439 143.117 48.22 143.051C45.1503 142.728 42.5838 140.591 41.3542 137.334C39.9435 133.597 40.6317 129.309 43.0672 126.664C44.5061 125.101 47.8233 122.736 53.874 124.465L52.026 130.931C50.9181 130.614 48.9236 130.232 48.0151 131.218C47.2946 132 47.1365 133.609 47.6459 134.96C47.8869 135.599 48.3492 136.303 48.9226 136.363C52.3553 136.727 53.0923 135.389 53.1658 135.237C53.1153 135.341 53.1029 135.407 53.1029 135.407L59.4929 137.502C58.7693 139.71 55.9808 143.148 50.0037 143.148Z" fill="#F5F4F8"/>
<path d="M50.0042 143.82C49.406 143.82 48.7821 143.787 48.1503 143.72C44.8225 143.37 42.047 141.071 40.7257 137.572C39.2269 133.602 39.9698 129.035 42.573 126.207C44.1164 124.53 47.6629 121.992 54.0587 123.818C54.2302 123.867 54.3753 123.982 54.4619 124.138C54.5485 124.294 54.5695 124.478 54.521 124.649L52.6731 131.115C52.6239 131.287 52.5087 131.432 52.3527 131.518C52.197 131.604 52.0117 131.626 51.8412 131.577C50.2348 131.118 48.9908 131.153 48.5102 131.673C47.9685 132.261 47.8633 133.629 48.2758 134.722C48.5058 135.331 48.8406 135.678 48.9935 135.694C51.9666 136.005 52.5517 134.961 52.5617 134.942C52.7232 134.609 53.1251 134.472 53.4595 134.631C53.5902 134.694 53.6912 134.794 53.7565 134.913L59.7034 136.862C60.0561 136.978 60.2486 137.358 60.1328 137.711C59.3892 139.98 56.4196 143.82 50.0042 143.82ZM49.8749 124.533C46.5454 124.533 44.5619 126.033 43.5623 127.119C41.2953 129.582 40.6607 133.591 41.9841 137.096C43.1216 140.11 45.4794 142.086 48.2909 142.383C48.876 142.444 49.4528 142.475 50.0045 142.475C55.0759 142.475 57.6681 139.847 58.6007 137.917L53.2561 136.164C52.6366 136.696 51.3658 137.303 48.8526 137.031C47.7478 136.915 47.1686 135.598 47.0177 135.196C46.4147 133.599 46.6261 131.734 47.5213 130.762C48.4704 129.734 50.1358 129.797 51.5596 130.117L53.0398 124.939C51.8714 124.654 50.8189 124.533 49.8749 124.533Z" fill="#88879B"/>
<path d="M88.4363 152.36C28.0587 151.069 50.6413 95.3722 50.6413 95.3722C47.9649 91.8615 51.9998 89.6694 51.9998 89.6694C48.7988 82.0296 57.3397 80.9805 57.3397 80.9805C57.3397 80.9805 114.53 84.8408 119.09 88.082C121.443 89.7633 121.174 91.7 120.367 93.1798C119.614 94.5651 118.39 95.5472 118.39 95.5472C118.39 95.5472 120.851 100.255 122.99 106.953C128.356 123.806 131.638 153.275 88.4363 152.36Z" fill="#F5F4F8"/>
<path d="M90.3617 153.053C89.7234 153.053 89.0771 153.047 88.4216 153.033C70.3307 152.646 57.8028 147.353 51.1866 137.3C40.7325 121.417 48.7212 98.5669 49.8824 95.4698C49.1561 94.3966 48.9038 93.3182 49.13 92.2588C49.4321 90.8508 50.5184 89.8773 51.1725 89.4046C50.3726 87.2204 50.4211 85.3309 51.3197 83.7823C53.0126 80.8655 57.0847 80.3344 57.2579 80.3135C63.2581 80.7064 114.897 84.2762 119.479 87.5336C121.677 89.1032 122.201 91.2224 120.956 93.5021C120.423 94.4846 119.679 95.2721 119.222 95.7056C119.894 97.0696 121.882 101.274 123.63 106.748C126.914 117.062 129.252 131.467 121.739 141.52C116.015 149.177 105.464 153.053 90.3617 153.053ZM88.4505 151.688C104.112 152.018 114.97 148.328 120.66 140.715C127.832 131.119 125.537 117.17 122.348 107.157C120.254 100.599 117.817 95.9049 117.793 95.8582C117.644 95.5746 117.718 95.2243 117.967 95.0229C117.979 95.0136 119.1 94.1016 119.775 92.859C120.69 91.1835 120.337 89.8006 118.698 88.6295C115.086 86.0617 73.1522 82.7221 57.2961 81.652C57.3342 81.6599 53.8232 82.1419 52.4808 84.4622C51.7359 85.7495 51.7834 87.4136 52.6187 89.4094C52.7514 89.7267 52.6225 90.0939 52.3217 90.2592C52.3059 90.2685 50.7401 91.145 50.4434 92.5472C50.2846 93.3052 50.5301 94.1181 51.1749 94.9641C51.3193 95.1532 51.3523 95.4041 51.2643 95.6248C51.1646 95.8685 41.5221 120.177 52.3138 136.565C58.6725 146.223 70.8312 151.312 88.4505 151.688Z" fill="#88879B"/>
<path d="M59.4922 141.245C59.4922 141.245 60.2378 161.669 67.0784 161.669C73.919 161.669 78.3919 148.513 78.3919 148.513L59.4922 141.245Z" fill="#F5F4F8"/>
<path d="M67.0794 162.341C59.8001 162.341 58.8995 143.426 58.8208 141.27C58.807 140.899 59.0965 140.587 59.4684 140.574C59.8211 140.561 60.1514 140.849 60.1645 141.221C60.3663 146.722 62.0015 160.997 67.0794 160.997C73.3659 160.997 77.7126 148.425 77.7556 148.297C77.8752 147.946 78.2561 147.757 78.6094 147.877C78.9608 147.997 79.1491 148.379 79.0298 148.731C78.8404 149.286 74.3188 162.341 67.0794 162.341Z" fill="#88879B"/>
<path d="M98.5 148.513C98.5 148.513 102.973 161.669 109.813 161.669C116.654 161.669 117.4 141.245 117.4 141.245L98.5 148.513Z" fill="#F5F4F8"/>
<path d="M109.813 162.341C102.573 162.341 98.0508 149.286 97.8625 148.73C97.7422 148.378 97.9309 147.996 98.2822 147.877C98.6335 147.757 99.0157 147.946 99.1354 148.297C99.1787 148.424 103.533 160.996 109.813 160.996C114.89 160.996 116.525 146.721 116.727 141.221C116.74 140.849 117.093 140.554 117.423 140.573C117.794 140.586 118.084 140.898 118.071 141.269C117.992 143.426 117.091 162.341 109.813 162.341Z" fill="#88879B"/>
<path d="M140.891 70.9472C140.81 71.6735 140.689 72.373 140.528 73.0588C140.017 75.4125 139.115 77.4973 137.918 79.367C135.659 82.9179 132.323 85.6885 128.436 87.827C124.952 89.7774 121.025 91.203 117.017 92.2792L65.5164 88.9703L55.3616 88.3247C52.9004 87.0738 50.533 85.5943 48.3811 83.8457C47.5204 83.1733 46.6998 82.4336 45.9199 81.6666C44.306 80.0796 42.8533 78.3175 41.6024 76.3268C40.5666 74.6861 39.6791 72.8969 38.9796 70.9468C38.5492 69.7901 38.1858 68.5931 37.9036 67.4093C37.3388 65.1632 37.0026 62.8766 36.8947 60.59C35.8322 38.3971 55.4022 15.3435 86.7141 14.3618C87.4002 14.3484 88.0994 14.335 88.7989 14.335C91.3007 14.335 93.762 14.4828 96.1696 14.7653C115.78 17.052 131.207 28.525 133.79 45.3508C134.556 50.3005 136.453 53.9724 138.12 57.5502C138.685 58.7877 139.223 59.998 139.681 61.2623C139.694 61.2757 139.694 61.2892 139.694 61.3029C140.151 62.5806 140.528 63.8852 140.77 65.2842C141.066 67.0061 141.146 68.8623 140.891 70.9472Z" fill="#F5F4F8"/>
<path d="M117.016 92.9534C116.719 92.9534 116.448 92.755 116.367 92.4543C116.272 92.0957 116.484 91.7272 116.844 91.6313C126.807 88.9676 133.708 84.7216 137.354 79.0112C138.552 77.1409 139.399 75.089 139.875 72.9141C140.02 72.2937 140.131 71.6447 140.229 70.8644C140.456 68.9754 140.417 67.1859 140.108 65.3963C139.645 62.6216 138.568 60.139 137.504 57.8338L137.016 56.7929C135.451 53.4634 133.834 50.0194 133.129 45.4554C130.685 29.5607 116.147 17.7763 96.0931 15.4329C93.0203 15.0693 89.8657 14.9373 86.7311 15.0383C71.5693 15.513 58.108 21.3111 48.8251 31.3637C41.1766 39.646 37.0753 50.2844 37.571 60.5529C37.6728 62.8271 38.0031 65.079 38.5541 67.2485C38.824 68.3722 39.1774 69.5364 39.6064 70.7186C40.2743 72.5621 41.1391 74.3287 42.1762 75.9701C43.3309 77.8136 44.7475 79.5678 46.3892 81.1858C48.9268 83.6842 52.0498 85.8848 55.6698 87.7256C56.0008 87.8944 56.1328 88.299 55.9647 88.63C55.796 88.9611 55.3914 89.0917 55.0603 88.925C51.3169 87.021 48.0819 84.7395 45.4456 82.1442C43.729 80.4522 42.2467 78.6163 41.0374 76.6864C39.9505 74.9656 39.043 73.1118 38.3414 71.1772C37.8962 69.9483 37.5284 68.7355 37.2479 67.5709C36.6773 65.3214 36.3332 62.9784 36.2273 60.6154C35.7144 49.9919 39.9456 38.9967 47.8371 30.451C57.3666 20.1317 71.164 14.1803 86.6877 13.6949C89.8815 13.5867 93.1114 13.7252 96.2498 14.0975C116.922 16.513 131.919 28.7416 134.458 45.2509C135.133 49.6227 136.709 52.9773 138.234 56.2213L138.724 57.2687C139.826 59.6585 140.944 62.2362 141.434 65.1712C141.764 67.0883 141.807 69.0047 141.564 71.028C141.459 71.8595 141.34 72.5515 141.186 73.2104C140.679 75.5328 139.77 77.7314 138.486 79.7359C134.654 85.7377 127.489 90.1776 117.19 92.9307C117.133 92.9462 117.074 92.9534 117.016 92.9534Z" fill="#88879B"/>
<path d="M60.8427 73.8121C66.188 73.8121 70.5213 71.6291 70.5213 68.9363C70.5213 66.2435 66.188 64.0605 60.8427 64.0605C55.4973 64.0605 51.1641 66.2435 51.1641 68.9363C51.1641 71.6291 55.4973 73.8121 60.8427 73.8121Z" fill="#FFAACC"/>
<path d="M130.587 71.94C135.932 71.94 140.265 69.757 140.265 67.0642C140.265 64.3714 135.932 62.1885 130.587 62.1885C125.241 62.1885 120.908 64.3714 120.908 67.0642C120.908 69.757 125.241 71.94 130.587 71.94Z" fill="#FFAACC"/>
<path d="M64.4708 68.1623C73.9676 68.1623 81.6662 60.4637 81.6662 50.9669C81.6662 41.4701 73.9676 33.7715 64.4708 33.7715C54.974 33.7715 47.2754 41.4701 47.2754 50.9669C47.2754 60.4637 54.974 68.1623 64.4708 68.1623Z" fill="#C6C5D2"/>
<path d="M64.4716 68.8349C54.6191 68.8349 46.6035 60.8193 46.6035 50.9668C46.6035 41.1142 54.6191 33.0986 64.4716 33.0986C74.3242 33.0986 82.3398 41.1142 82.3398 50.9668C82.3398 60.8193 74.3242 68.8349 64.4716 68.8349ZM64.4716 34.4437C55.3606 34.4437 47.9486 41.8557 47.9486 50.9668C47.9486 60.0779 55.3606 67.4898 64.4716 67.4898C73.5827 67.4898 80.9947 60.0779 80.9947 50.9668C80.9947 41.8557 73.5827 34.4437 64.4716 34.4437Z" fill="#88879B"/>
<path d="M153.345 55.1035C162.516 46.0721 158.976 40.8282 149.288 34.8429C139.59 28.8671 133.406 26.7661 129.362 30.7488C125.318 34.7315 127.323 40.9468 133.149 50.7351C138.975 60.5237 144.173 64.1348 153.345 55.1035Z" fill="#C6C5D2"/>
<path d="M143.064 60.8994C139.536 60.4449 136.397 57.5076 132.571 51.0791C127.068 41.8323 124.335 34.7548 128.89 30.2695C133.445 25.7843 140.479 28.6257 149.641 34.2708C156.01 38.206 158.898 41.3923 159.296 44.9243C159.66 48.1566 157.919 51.5432 153.816 55.5829C149.71 59.6261 146.294 61.3157 143.064 60.8994ZM133.726 50.3916C137.318 56.4258 140.162 59.17 143.237 59.5656C145.985 59.9197 149.137 58.3034 152.873 54.6246C156.605 50.9492 158.269 47.8255 157.959 45.0752C157.613 41.9983 154.913 39.1091 148.935 35.4155C138.597 29.0454 133.242 27.8715 129.833 31.2279C126.425 34.5843 127.516 39.9574 133.726 50.3916Z" fill="#88879B"/>
<path d="M134.885 68.1623C144.382 68.1623 152.08 60.4637 152.08 50.9669C152.08 41.4701 144.382 33.7715 134.885 33.7715C125.388 33.7715 117.689 41.4701 117.689 50.9669C117.689 60.4637 125.388 68.1623 134.885 68.1623Z" fill="#C6C5D2"/>
<path d="M134.886 68.8349C125.033 68.8349 117.018 60.8193 117.018 50.9668C117.018 41.1142 125.033 33.0986 134.886 33.0986C144.738 33.0986 152.754 41.1142 152.754 50.9668C152.754 60.8193 144.738 68.8349 134.886 68.8349ZM134.886 34.4437C125.775 34.4437 118.363 41.8557 118.363 50.9668C118.363 60.0779 125.775 67.4898 134.886 67.4898C143.997 67.4898 151.409 60.0779 151.409 50.9668C151.409 41.8557 143.997 34.4437 134.886 34.4437Z" fill="#88879B"/>
<path d="M97.7536 76.5671C97.4311 76.5671 97.1476 76.3347 97.0915 76.0061C97.0296 75.6411 97.2768 75.2942 97.6419 75.2313C97.7904 75.2062 101.282 74.5751 101.681 71.6395C101.731 71.2723 102.071 71.0156 102.438 71.0633C102.806 71.1132 103.064 71.4521 103.014 71.8206C102.481 75.7442 98.0533 76.5262 97.865 76.5578C97.8271 76.5644 97.7904 76.5671 97.7536 76.5671Z" fill="#88879B"/>
<path d="M22.6548 55.1035C13.4832 46.0721 17.0235 40.8282 26.7118 34.8429C36.4093 28.8671 42.5934 26.7661 46.6376 30.7488C50.6818 34.7315 48.6767 40.9468 42.8508 50.7351C37.0246 60.5237 31.8264 64.1348 22.6548 55.1035Z" fill="#C6C5D2"/>
<path d="M22.1828 55.5829C18.0801 51.5431 16.339 48.1565 16.7034 44.9242C17.1011 41.3922 19.9889 38.206 26.3579 34.2707C35.5199 28.6253 42.5548 25.7846 47.1091 30.2695C51.6634 34.7544 48.9313 41.8322 43.4279 51.0791C39.6019 57.5075 36.4635 60.4449 32.9346 60.8993C29.7054 61.3156 26.2885 59.6261 22.1828 55.5829ZM46.1655 31.2278C42.7569 27.8715 37.4016 29.0454 27.0643 35.4151C21.0858 39.109 18.3867 41.9979 18.0395 45.0748C17.7295 47.8251 19.3939 50.9488 23.1263 54.6242C26.8619 58.3026 30.0144 59.9193 32.7623 59.5652C35.8368 59.1696 38.681 56.4254 42.2729 50.3912C48.4827 39.9574 49.5741 34.5846 46.1655 31.2278Z" fill="#88879B"/>
<path d="M103.03 45.082C101.066 44.6029 99.0345 44.6029 97.071 45.082C88.986 47.0555 67.9499 53.9587 78.8306 70.5866C89.7697 87.3038 97.0486 69.2308 99.305 62.2221C99.5381 61.4982 100.563 61.4982 100.796 62.2221C103.052 69.2308 110.331 87.3038 121.27 70.5866C132.151 53.9591 111.115 47.0555 103.03 45.082Z" fill="#C6C5D2"/>
<path d="M112.468 78.1502C112.201 78.1502 111.937 78.1323 111.671 78.0962C105.786 77.3028 101.929 67.9398 100.156 62.4288L99.305 62.2225L99.9447 62.4288C98.1717 67.9394 94.3151 77.3028 88.4295 78.0962C85.0748 78.5534 81.6624 76.1444 78.2682 70.9555C75.1157 66.1382 74.312 61.6842 75.8788 57.7163C78.9787 49.8654 90.3864 46.0223 96.9118 44.4297C98.9936 43.9206 101.107 43.9206 103.189 44.4297C109.714 46.0223 121.122 49.8654 124.222 57.7163C125.789 61.6842 124.985 66.1385 121.833 70.9555C118.707 75.734 115.56 78.1495 112.468 78.1502ZM100.051 61.007C100.051 61.007 100.051 61.007 100.053 61.0077C100.696 61.0077 101.24 61.4044 101.436 62.017C102.786 66.2104 106.505 76.0423 111.852 76.7635C114.647 77.1327 117.621 74.9358 120.709 70.2185C123.606 65.7886 124.368 61.7485 122.972 58.2099C119.986 50.6509 107.92 46.9683 102.871 45.7363C100.997 45.2791 99.1019 45.2791 97.2301 45.7363C92.1811 46.9683 80.1152 50.6509 77.1297 58.2099C75.7334 61.7485 76.4952 65.7889 79.393 70.2185C82.4809 74.9392 85.4705 77.1347 88.2497 76.7635C93.5971 76.0423 97.3154 66.2104 98.6657 62.0163C98.864 61.403 99.4075 61.007 100.051 61.007Z" fill="#88879B"/>
<path d="M105.181 48.514C105.181 50.2957 102.088 51.8189 100.646 52.4321C100.181 52.6301 99.6642 52.6301 99.1988 52.4321C97.7571 51.8189 94.6641 50.2957 94.6641 48.514C94.6641 46.1906 97.0184 47.1404 99.9224 47.1404C102.826 47.1404 105.181 46.191 105.181 48.514Z" fill="#88879B"/>
<path d="M99.2832 61.6992L99.4099 51.1427L100.755 51.1588L100.628 61.7154L99.2832 61.6992Z" fill="#88879B"/>
<path d="M114.689 93.5991C115.046 93.5991 115.335 93.3098 115.335 92.9529C115.335 92.596 115.046 92.3066 114.689 92.3066C114.332 92.3066 114.043 92.596 114.043 92.9529C114.043 93.3098 114.332 93.5991 114.689 93.5991Z" fill="#88879B"/>
<path d="M57.4841 89.6607C57.8411 89.6607 58.1304 89.3713 58.1304 89.0144C58.1304 88.6575 57.8411 88.3682 57.4841 88.3682C57.1272 88.3682 56.8379 88.6575 56.8379 89.0144C56.8379 89.3713 57.1272 89.6607 57.4841 89.6607Z" fill="#88879B"/>
<path fill-rule="evenodd" clip-rule="evenodd" d="M69.9677 57.2139C69.9677 57.2139 69.9275 57.3081 69.8467 57.4693C69.6717 57.8728 69.4971 58.2764 69.3355 58.7202V58.7336C68.3132 61.531 67.7216 64.9878 67.7216 68.2427C67.7216 70.099 67.9234 71.8879 68.3136 73.4616C69.2819 77.2951 69.0399 81.33 67.6412 85.0153L65.5161 88.9698L55.3614 88.3243C52.9001 87.0734 50.5327 85.5939 48.3809 83.8452C52.2546 81.0072 55.8189 76.6495 55.8189 69.0499C55.8189 68.0949 55.7516 67.086 55.644 66.0235C55.3751 63.764 56.1551 61.5042 57.7288 59.8903C57.9034 59.7019 58.065 59.5541 58.2131 59.406C59.7868 57.8323 60.2846 57.5363 60.2846 57.5363L69.9677 57.2139Z" fill="#00C9FF"/>
<path fill-rule="evenodd" clip-rule="evenodd" d="M140.891 70.9465C140.81 71.6728 140.689 72.3723 140.528 73.0581C140.017 75.4118 139.115 77.4966 137.918 79.3663C135.659 82.9172 132.323 85.6878 128.436 87.8263C127.616 82.7288 126.943 76.2725 127.992 73.6769C129.122 70.9196 129.7 67.9606 129.7 65.0016C129.7 63.253 129.485 61.5047 129.095 59.7828C129.014 59.3927 128.947 59.0833 128.907 58.8011C128.678 57.4962 128.799 57.1064 128.799 57.1064L135.887 56.2725C135.887 56.2725 136.129 56.5818 136.493 57.0658C137.206 58.0074 138.497 59.7021 139.68 61.2623C139.694 61.2757 139.694 61.2891 139.694 61.3029C140.151 62.5806 140.528 63.8851 140.77 65.2842C141.066 67.0054 141.146 68.8616 140.891 70.9465Z" fill="#00C9FF"/>
<path d="M64.2507 60.3417C60.9163 60.2873 57.6122 59.1853 55.6019 57.3414C54.9144 56.7106 54.8687 55.6416 55.4988 54.9544C56.1289 54.2666 57.1973 54.2184 57.8868 54.8513C59.7166 56.5305 63.3418 57.35 66.4936 56.7969C68.2299 56.4937 70.5471 55.6587 71.73 53.4017C72.1638 52.5746 73.1865 52.2567 74.0111 52.6894C74.8382 53.1226 75.1568 54.1435 74.7241 54.9702C73.3023 57.6824 70.587 59.5132 67.0749 60.1265C66.1509 60.288 65.1991 60.3571 64.2507 60.3417Z" fill="#88879B"/>
<path d="M133.946 58.8378C137.281 58.8921 140.619 57.8977 142.688 56.1201C143.395 55.512 143.476 54.445 142.869 53.7376C142.261 53.0295 141.195 52.9466 140.485 53.5568C138.602 55.1759 134.952 55.8768 131.819 55.2216C130.094 54.8624 127.805 53.9521 126.696 51.6579C126.29 50.8171 125.278 50.4661 124.439 50.8718C123.599 51.2777 123.247 52.288 123.653 53.1281C124.986 55.885 127.64 57.8031 131.131 58.5302C132.049 58.7223 132.998 58.8224 133.946 58.8378Z" fill="#88879B"/>
<path d="M54.5323 89.6605C54.5323 89.6605 66.5516 62.1862 73.992 63.7881C81.4325 65.39 73.1502 103.997 62.7741 105.798C56.8365 106.828 52.1855 97.4701 52.1855 97.4701" fill="#F5F4F8"/>
<path d="M61.8479 106.55C56.0186 106.551 51.7723 98.1481 51.5842 97.7696C51.4189 97.4365 51.554 97.0333 51.8864 96.8679C52.216 96.7043 52.6234 96.8377 52.7874 97.1708C52.832 97.2602 57.3097 106.064 62.6595 105.135C69.6524 103.922 75.9324 84.0935 76.1703 72.2833C76.262 67.7083 75.3955 64.7778 73.8506 64.4458C68.2118 63.2385 58.4328 82.428 55.1493 89.93C54.9994 90.2721 54.6041 90.4271 54.2641 90.2769C53.9238 90.1277 53.7688 89.7317 53.9173 89.3917C55.1689 86.5276 66.3981 61.4569 74.1346 63.1309C76.457 63.6308 77.6257 66.8049 77.5154 72.3104C77.2909 83.4534 71.1096 105.035 62.8909 106.461C62.5389 106.521 62.1906 106.55 61.8479 106.55Z" fill="#88879B"/>
<path d="M133.386 109.226C129.324 110.127 125.612 108.607 122.989 106.953C120.85 100.255 118.389 95.5474 118.389 95.5474C118.389 95.5474 119.613 94.5656 120.366 93.18L125.329 93.5969C125.329 93.5969 129.5 65.4909 137.18 66.3248C144.86 67.1591 141.133 107.518 133.386 109.226Z" fill="#F5F4F8"/>
<path d="M130.948 110.163C128.234 110.163 125.403 109.27 122.631 107.521C122.497 107.437 122.397 107.308 122.348 107.157C120.252 100.59 117.818 95.9048 117.793 95.858C117.645 95.5745 117.718 95.2242 117.968 95.0227C117.979 95.0135 119.1 94.1015 119.775 92.8588C119.903 92.6251 120.142 92.48 120.423 92.5103L124.76 92.8746C125.527 87.9896 129.546 64.846 137.252 65.6565C140.671 66.0274 141.714 72.075 141.988 77.0824C142.659 89.3904 139.404 108.585 133.533 109.883C132.687 110.07 131.823 110.163 130.948 110.163ZM123.554 106.512C125.901 107.951 129.427 109.415 133.241 108.57H133.242C137.796 107.565 141.329 89.7328 140.644 77.156C140.309 70.9963 138.986 67.1979 137.108 66.9934C131.289 66.3708 127.128 86.056 125.995 93.6955C125.943 94.0461 125.645 94.3036 125.273 94.2668L120.733 93.8853C120.229 94.689 119.619 95.3307 119.222 95.7058C119.885 97.0502 121.826 101.154 123.554 106.512Z" fill="#88879B"/>
</svg>
