<svg width="24" height="25" viewBox="0 0 24 25" fill="none" xmlns="http://www.w3.org/2000/svg">
<path d="M6 10.5H6.75C7.44036 10.5 8 11.0596 8 11.75V15.25C8 15.9404 7.44036 16.5 6.75 16.5H6C4.34315 16.5 3 15.1569 3 13.5C3 11.8431 4.34315 10.5 6 10.5ZM6 10.5V9.5C6 6.18629 8.68629 3.5 12 3.5C15.3137 3.5 18 6.18629 18 9.5V10.5M18 10.5H17.25C16.5596 10.5 16 11.0596 16 11.75V15.25C16 15.9404 16.5596 16.5 17.25 16.5H18M18 10.5C19.6569 10.5 21 11.8431 21 13.5C21 15.1569 19.6569 16.5 18 16.5M18 16.5L17.3787 18.9851C17.1561 19.8754 16.3562 20.5 15.4384 20.5H13" stroke="#161516" stroke-width="2" stroke-linecap="round" stroke-linejoin="round"/>
</svg>
