<svg width="24" height="25" viewBox="0 0 24 25" fill="none" xmlns="http://www.w3.org/2000/svg">
<path d="M6.07179 6.76794L6.57179 5.90192L6.07179 6.76794ZM4.70577 7.13397L3.83974 6.63397L3.83974 6.63397L4.70577 7.13397ZM3.70577 8.86602L2.83974 8.36602H2.83974L3.70577 8.86602ZM4.07179 10.232L3.57179 11.0981H3.57179L4.07179 10.232ZM4.07179 14.7679L3.57179 13.9019H3.57179L4.07179 14.7679ZM3.70577 16.134L4.57179 15.634H4.57179L3.70577 16.134ZM4.70577 17.866L3.83974 18.366H3.83974L4.70577 17.866ZM6.07179 18.232L6.57179 19.0981L6.07179 18.232ZM17.9282 18.232L17.4282 19.0981L17.4282 19.0981L17.9282 18.232ZM19.2942 17.866L18.4282 17.366L19.2942 17.866ZM20.2942 16.134L21.1602 16.634L20.2942 16.134ZM19.9282 14.7679L19.4282 15.634V15.634L19.9282 14.7679ZM19.9282 10.232L20.4282 11.0981V11.0981L19.9282 10.232ZM20.2942 8.86602L19.4282 9.36602L19.4282 9.36602L20.2942 8.86602ZM19.2942 7.13397L18.4282 7.63397L19.2942 7.13397ZM17.9282 6.76794L18.4282 7.63397L17.9282 6.76794ZM14.6512 7.11604L14.2088 8.01283L14.6512 7.11604ZM16.5118 7.58573L17.0118 8.45175L16.5118 7.58573ZM15.3358 7.51204L14.7792 8.34277L15.3358 7.51204ZM17.9871 12.1035L16.9892 12.1686L17.9871 12.1035ZM18.5116 11.0499L18.0116 10.1839L18.5116 11.0499ZM15.3358 17.488L14.7792 16.6572L15.3358 17.488ZM16.5118 17.4143L16.0118 18.2803L16.5118 17.4143ZM18.5116 13.9501L18.0116 14.8161L18.5116 13.9501ZM9.34876 17.884L9.79121 16.9872L9.34876 17.884ZM7.48823 17.4143L6.98823 16.5482L7.48823 17.4143ZM8.66415 17.488L8.10747 18.3187L8.66415 17.488ZM14.6512 17.884L15.0937 18.7808L14.6512 17.884ZM5.48837 11.0499L4.98837 11.9159L5.48837 11.0499ZM6.01289 12.1035L5.01501 12.0385L6.01289 12.1035ZM7.48824 7.58573L6.98824 8.45176L7.48824 7.58573ZM11 4.5V4.5V2.5C9.89543 2.5 9 3.39543 9 4.5H11ZM11 6.13424V4.5H9V6.13424H11ZM9.22084 8.34277C9.40297 8.22073 9.59345 8.1104 9.79121 8.01283L8.90631 6.21924C8.62907 6.35603 8.3623 6.51056 8.10748 6.68131L9.22084 8.34277ZM5.57179 7.63397L6.98824 8.45176L7.98824 6.7197L6.57179 5.90192L5.57179 7.63397ZM5.57179 7.63397L6.57179 5.90192C5.61521 5.34963 4.39203 5.67738 3.83974 6.63397L5.57179 7.63397ZM4.57179 9.36602L5.57179 7.63397L3.83974 6.63397L2.83974 8.36602L4.57179 9.36602ZM4.57179 9.36602L4.57179 9.36602L2.83974 8.36602C2.28746 9.32261 2.61521 10.5458 3.57179 11.0981L4.57179 9.36602ZM5.98837 10.1839L4.57179 9.36602L3.57179 11.0981L4.98837 11.9159L5.98837 10.1839ZM7 12.5C7 12.3885 7.00363 12.278 7.01076 12.1686L5.01501 12.0385C5.00505 12.1912 5 12.3451 5 12.5H7ZM7.01076 12.8314C7.00363 12.722 7 12.6115 7 12.5H5C5 12.6549 5.00505 12.8088 5.01501 12.9615L7.01076 12.8314ZM4.57179 15.634L5.98836 14.8161L4.98836 13.0841L3.57179 13.9019L4.57179 15.634ZM4.57179 15.634L4.57179 15.634L3.57179 13.9019C2.61521 14.4542 2.28746 15.6774 2.83974 16.634L4.57179 15.634ZM5.57179 17.366L4.57179 15.634L2.83974 16.634L3.83974 18.366L5.57179 17.366ZM5.57179 17.366L5.57179 17.366L3.83974 18.366C4.39203 19.3226 5.61521 19.6504 6.57179 19.0981L5.57179 17.366ZM6.98823 16.5482L5.57179 17.366L6.57179 19.0981L7.98823 18.2803L6.98823 16.5482ZM9.79121 16.9872C9.59345 16.8896 9.40296 16.7793 9.22083 16.6572L8.10747 18.3187C8.3623 18.4894 8.62907 18.644 8.90631 18.7808L9.79121 16.9872ZM11 20.5V18.8658H9V20.5H11ZM11 20.5H9C9 21.6046 9.89543 22.5 11 22.5V20.5ZM13 20.5H11V22.5H13V20.5ZM13 20.5V22.5C14.1046 22.5 15 21.6046 15 20.5H13ZM13 18.8658V20.5H15V18.8658H13ZM14.7792 16.6572C14.597 16.7793 14.4065 16.8896 14.2088 16.9872L15.0937 18.7808C15.3709 18.644 15.6377 18.4894 15.8925 18.3187L14.7792 16.6572ZM18.4282 17.366L17.0118 16.5482L16.0118 18.2803L17.4282 19.0981L18.4282 17.366ZM18.4282 17.366H18.4282L17.4282 19.0981C18.3848 19.6504 19.608 19.3226 20.1602 18.366L18.4282 17.366ZM19.4282 15.634L18.4282 17.366L20.1602 18.366L21.1602 16.634L19.4282 15.634ZM19.4282 15.634V15.634L21.1602 16.634C21.7125 15.6774 21.3848 14.4542 20.4282 13.9019L19.4282 15.634ZM18.0116 14.8161L19.4282 15.634L20.4282 13.9019L19.0116 13.0841L18.0116 14.8161ZM17 12.5C17 12.6115 16.9964 12.722 16.9892 12.8314L18.985 12.9615C18.9949 12.8088 19 12.6549 19 12.5H17ZM16.9892 12.1686C16.9964 12.278 17 12.3885 17 12.5H19C19 12.3451 18.9949 12.1912 18.985 12.0385L16.9892 12.1686ZM19.4282 9.36602L18.0116 10.1839L19.0116 11.9159L20.4282 11.0981L19.4282 9.36602ZM19.4282 9.36602L19.4282 9.36602L20.4282 11.0981C21.3848 10.5458 21.7125 9.32261 21.1602 8.36602L19.4282 9.36602ZM18.4282 7.63397L19.4282 9.36602L21.1602 8.36602L20.1602 6.63397L18.4282 7.63397ZM18.4282 7.63397V7.63397L20.1602 6.63397C19.608 5.67738 18.3848 5.34963 17.4282 5.90192L18.4282 7.63397ZM17.0118 8.45175L18.4282 7.63397L17.4282 5.90192L16.0118 6.7197L17.0118 8.45175ZM14.2088 8.01283C14.4065 8.1104 14.597 8.22072 14.7792 8.34277L15.8925 6.68131C15.6377 6.51056 15.3709 6.35603 15.0937 6.21924L14.2088 8.01283ZM13 4.5V6.13423H15V4.5H13ZM13 4.5H15C15 3.39543 14.1046 2.5 13 2.5V4.5ZM11 4.5H13V2.5H11V4.5ZM15.0937 6.21924C15.0509 6.19815 15.023 6.17053 15.0092 6.15025C14.9971 6.13248 15 6.12788 15 6.13423H13C13 7.00299 13.549 7.68731 14.2088 8.01283L15.0937 6.21924ZM16.0118 6.7197C16.0172 6.71655 16.0147 6.72132 15.9935 6.71972C15.9693 6.71789 15.9318 6.70762 15.8925 6.68131L14.7792 8.34277C15.3914 8.75303 16.2592 8.88623 17.0118 8.45175L16.0118 6.7197ZM18.985 12.0385C18.9819 11.9913 18.9918 11.9537 19.0024 11.9318C19.0116 11.9126 19.017 11.9128 19.0116 11.9159L18.0116 10.1839C17.2602 10.6177 16.9413 11.4342 16.9892 12.1686L18.985 12.0385ZM15.8925 18.3187C15.9318 18.2924 15.9693 18.2821 15.9935 18.2803C16.0147 18.2787 16.0172 18.2834 16.0118 18.2803L17.0118 16.5482C16.2592 16.1138 15.3914 16.247 14.7792 16.6572L15.8925 18.3187ZM19.0116 13.0841C19.017 13.0872 19.0116 13.0874 19.0024 13.0682C18.9918 13.0462 18.9819 13.0087 18.985 12.9615L16.9892 12.8314C16.9413 13.5658 17.2602 14.3823 18.0116 14.8161L19.0116 13.0841ZM8.90631 18.7808C8.94907 18.8019 8.97696 18.8295 8.99079 18.8497C9.00291 18.8675 9 18.8721 9 18.8658H11C11 17.997 10.451 17.3127 9.79121 16.9872L8.90631 18.7808ZM7.98823 18.2803C7.98277 18.2834 7.98524 18.2787 8.00646 18.2803C8.03069 18.2821 8.06821 18.2924 8.10747 18.3187L9.22083 16.6572C8.6086 16.247 7.74076 16.1138 6.98823 16.5482L7.98823 18.2803ZM15 18.8658C15 18.8721 14.9971 18.8675 15.0092 18.8497C15.023 18.8295 15.0509 18.8019 15.0937 18.7808L14.2088 16.9872C13.549 17.3127 13 17.997 13 18.8658H15ZM5.01501 12.9615C5.01808 13.0086 5.00818 13.0462 4.99762 13.0682C4.98836 13.0874 4.98295 13.0872 4.98836 13.0841L5.98836 14.8161C6.73975 14.3823 7.05867 13.5658 7.01076 12.8314L5.01501 12.9615ZM4.98837 11.9159C4.98295 11.9128 4.98836 11.9126 4.99762 11.9318C5.00818 11.9537 5.01808 11.9913 5.01501 12.0385L7.01076 12.1686C7.05867 11.4342 6.73976 10.6177 5.98837 10.1839L4.98837 11.9159ZM8.10748 6.68131C8.06822 6.70763 8.0307 6.71789 8.00647 6.71972C7.98525 6.72133 7.98278 6.71655 7.98824 6.7197L6.98824 8.45176C7.74077 8.88623 8.60861 8.75303 9.22084 8.34277L8.10748 6.68131ZM9 6.13424C9 6.12788 9.00291 6.13248 8.99079 6.15025C8.97696 6.17053 8.94907 6.19815 8.90631 6.21924L9.79121 8.01283C10.451 7.68731 11 7.00299 11 6.13424H9Z" fill="#161516"/>
<circle cx="12" cy="12.5" r="3" stroke="#161516" stroke-width="2" stroke-linecap="round" stroke-linejoin="round"/>
</svg>
