<svg width="126" height="127" viewBox="0 0 126 127" fill="none" xmlns="http://www.w3.org/2000/svg">
<g clip-path="url(#clip0_484_20621)">
<path d="M15.5966 51.232L12.2406 51.8235C12.0618 52.5983 12.1826 53.436 12.6306 54.1493L49.7501 113.272C50.1832 113.962 51.0783 114.492 51.6448 114.625C52.2204 114.761 53.2756 114.685 53.9791 114.246L113.23 77.302C113.944 76.8571 114.418 76.1588 114.597 75.3855L112.232 73.5035C110.749 73.1619 96.9819 69.9889 80.2543 66.1337L60.9826 67.7899L47.1466 58.5035C31.4113 54.8768 18.3053 51.8562 15.5966 51.232Z" fill="#FFB739"/>
<path d="M114.595 75.3861C114.417 76.1587 113.943 76.857 113.228 77.302L53.9772 114.246C53.2796 114.683 52.2331 114.761 51.6582 114.629L62.4827 67.6611L80.2529 66.1342L112.23 73.5039L114.595 75.3861Z" fill="#FF9441"/>
<path d="M47.1467 58.5039L51.6599 114.629L80.2544 66.1342L47.1467 58.5039Z" fill="#FF9441"/>
<path d="M80.2527 66.1341L51.6582 114.629L63.7131 62.3223L80.2527 66.1341Z" fill="#FF7149"/>
<path d="M114.478 73.6055L103.978 45.8804C103.833 45.497 103.612 45.1489 103.333 44.8551L101.718 45.2181L72.1058 38.5875L69.6499 36.5657L67.0821 37.4625L37.5362 30.8468L35.7297 29.2779C35.3528 29.4198 35.0031 29.6354 34.705 29.9168L13.1237 50.28C12.6693 50.7088 12.3726 51.249 12.2402 51.8237C18.0499 53.161 107.093 73.658 114.597 75.3852C114.73 74.809 114.7 74.1913 114.478 73.6055Z" fill="#FFD17E"/>
<path d="M114.596 75.3863C110.879 74.5295 87.1334 69.0654 63.4188 63.6062L69.6506 36.5664L72.1075 38.5875L101.719 45.2187L103.334 44.8548C103.613 45.1504 103.833 45.4976 103.978 45.8802L114.479 73.6055C114.701 74.193 114.731 74.8097 114.596 75.3863Z" fill="#FFB739"/>
<path d="M37.5039 29.1575C36.905 29.0195 36.289 29.0672 35.7301 29.2779L47.3759 59.9121L47.3779 59.9126L69.6487 36.5659L37.5039 29.1575Z" fill="#FFB739"/>
<path d="M79.4641 67.2989L103.332 44.8553C102.922 44.4234 102.391 44.1125 101.794 43.9749L69.6487 36.5664L79.4512 67.2962L79.464 67.2991L79.4641 67.2989Z" fill="#FF9441"/>
<path d="M40.6938 80.3799C35.6812 79.2247 32.5429 74.2067 33.6981 69.1942C34.0798 67.5382 33.0466 65.8862 31.3906 65.5046C29.7346 65.1229 28.0827 66.1561 27.701 67.812C26.5516 72.7994 21.5525 75.9684 16.5154 74.8075C14.8594 74.4259 13.2074 75.459 12.8257 77.115C12.4441 78.771 13.4772 80.423 15.1332 80.8046C20.1458 81.9599 23.2839 86.9777 22.1287 91.9903C21.747 93.6463 22.7802 95.2982 24.4362 95.6799C26.0922 96.0615 27.7441 95.0284 28.1258 93.3724C29.2751 88.3854 34.2739 85.2159 39.3116 86.377C40.9676 86.7586 42.6196 85.7255 43.0013 84.0695C43.3829 82.4135 42.3498 80.7616 40.6938 80.3799Z" fill="#FFD17E"/>
<path d="M100.514 30.833C95.5013 29.6777 92.3632 24.6599 93.5184 19.6473C93.9001 17.9913 92.8669 16.3394 91.2109 15.9577C89.555 15.576 87.903 16.6092 87.5213 18.2652C86.3661 23.2777 81.3484 26.4159 76.3357 25.2607C74.6797 24.879 73.0277 25.9121 72.6461 27.5681C72.2644 29.2241 73.2975 30.8761 74.9535 31.2577C79.9661 32.413 83.1043 37.4308 81.949 42.4434C81.5674 44.0994 82.6005 45.7514 84.2565 46.133C85.9125 46.5147 87.5644 45.4815 87.9461 43.8255C89.1013 38.813 94.119 35.6748 99.1318 36.8301C100.788 37.2117 102.44 36.1786 102.821 34.5226C103.203 32.8666 102.17 31.2146 100.514 30.833Z" fill="#FFB739"/>
</g>
<defs>
<clipPath id="clip0_484_20621">
<rect width="105.033" height="105.033" fill="white" transform="translate(24.0725 0.484375) rotate(12.9783)"/>
</clipPath>
</defs>
</svg>
