<svg width="18" height="18" viewBox="0 0 18 18" fill="none" xmlns="http://www.w3.org/2000/svg">
<path d="M15.75 10.25C15.75 10.8023 15.3023 11.25 14.75 11.25H12.75V2.25H14.75C15.3023 2.25 15.75 2.69772 15.75 3.25V10.25Z" stroke="#88879B" stroke-linecap="round" stroke-linejoin="round"/>
<path d="M12.75 9.75V3.75L11.5077 2.9218C10.8506 2.48375 10.0786 2.25 9.2889 2.25H6.29138C4.82486 2.25 3.57329 3.31024 3.3322 4.7568L2.63813 8.9212C2.43496 10.1403 3.37504 11.25 4.61092 11.25H7.5" stroke="#88879B" stroke-linecap="round" stroke-linejoin="round"/>
<path d="M7.5 11.25L6.98462 13.8269C6.85059 14.4971 7.23657 15.1622 7.88496 15.3783V15.3783C8.52476 15.5916 9.22403 15.3019 9.52564 14.6987L12 9.75H12.75" stroke="#88879B" stroke-linecap="round" stroke-linejoin="round"/>
</svg>
