<svg width="18" height="18" viewBox="0 0 18 18" fill="none" xmlns="http://www.w3.org/2000/svg">
<path d="M2.25 7.75C2.25 7.19772 2.69772 6.75 3.25 6.75H5.25V15.75H3.25C2.69772 15.75 2.25 15.3023 2.25 14.75V7.75Z" stroke="#57A41B" stroke-linecap="round" stroke-linejoin="round"/>
<path d="M5.25 8.25V14.25L6.4923 15.0782C7.14937 15.5162 7.9214 15.75 8.7111 15.75H11.7086C13.1751 15.75 14.4267 14.6898 14.6678 13.2432L15.3619 9.0788C15.565 7.85973 14.625 6.75 13.3891 6.75H10.5" stroke="#57A41B" stroke-linecap="round" stroke-linejoin="round"/>
<path d="M10.5 6.75L11.0154 4.17312C11.1494 3.50293 10.7634 2.83781 10.115 2.62168V2.62168C9.47524 2.40841 8.77597 2.69806 8.47436 3.30127L6 8.25H5.25" stroke="#57A41B" stroke-linecap="round" stroke-linejoin="round"/>
</svg>
