<svg width="20" height="21" viewBox="0 0 20 21" fill="none" xmlns="http://www.w3.org/2000/svg">
<path d="M2.5 16.3333V15.5C2.5 13.659 3.99238 12.1667 5.83333 12.1667H9.16667C11.0076 12.1667 12.5 13.659 12.5 15.5V16.3333M12.5 9.66666C13.8807 9.66666 15 8.54737 15 7.16666C15 5.78594 13.8807 4.66666 12.5 4.66666M17.5 16.3333V15.5C17.5 13.659 16.0076 12.1667 14.1667 12.1667H13.75M10 7.16666C10 8.54737 8.88071 9.66666 7.5 9.66666C6.11929 9.66666 5 8.54737 5 7.16666C5 5.78594 6.11929 4.66666 7.5 4.66666C8.88071 4.66666 10 5.78594 10 7.16666Z" stroke="#161516" stroke-width="1.5" stroke-linecap="round" stroke-linejoin="round"/>
</svg>
