<svg width="18" height="18" viewBox="0 0 18 18" fill="none" xmlns="http://www.w3.org/2000/svg">
<path d="M2.25 14.25V13.5C2.25 11.8431 3.59315 10.5 5.25 10.5H8.25C9.90685 10.5 11.25 11.8431 11.25 13.5V14.25M11.25 8.25C12.4926 8.25 13.5 7.24264 13.5 6C13.5 4.75736 12.4926 3.75 11.25 3.75M15.75 14.25V13.5C15.75 11.8431 14.4069 10.5 12.75 10.5H12.375M9 6C9 7.24264 7.99264 8.25 6.75 8.25C5.50736 8.25 4.5 7.24264 4.5 6C4.5 4.75736 5.50736 3.75 6.75 3.75C7.99264 3.75 9 4.75736 9 6Z" stroke="black" stroke-width="1.5" stroke-linecap="round" stroke-linejoin="round"/>
</svg>
