<svg width="18" height="18" viewBox="0 0 18 18" fill="none" xmlns="http://www.w3.org/2000/svg">
<path d="M9 7.5L6.25 4.75C5.83579 4.33579 5.16421 4.33579 4.75 4.75C4.33579 5.16421 4.33579 5.83579 4.75 6.25L7.5 9L4.75 11.75C4.33579 12.1642 4.33579 12.8358 4.75 13.25C5.16421 13.6642 5.83579 13.6642 6.25 13.25L9 10.5L11.75 13.25C12.1642 13.6642 12.8358 13.6642 13.25 13.25C13.6642 12.8358 13.6642 12.1642 13.25 11.75L10.5 9L13.25 6.25C13.6642 5.83579 13.6642 5.16421 13.25 4.75C12.8358 4.33579 12.1642 4.33579 11.75 4.75L9 7.5Z" fill="#3B3E43"/>
</svg>
