<svg width="20" height="20" viewBox="0 0 20 20" fill="none" xmlns="http://www.w3.org/2000/svg">
<path d="M15.1332 11.9067L15.8995 11.2642L15.1332 11.9067ZM4.86667 11.9067L4.10038 11.2642L4.86667 11.9067ZM6.83329 7.49967C6.83329 5.75077 8.25106 4.33301 9.99996 4.33301V2.33301C7.14649 2.33301 4.83329 4.6462 4.83329 7.49967H6.83329ZM6.83329 9.90541V7.49967H4.83329V9.90541H6.83329ZM5.16663 13.833C5.16663 13.3433 5.34135 12.897 5.63297 12.5492L4.10038 11.2642C3.5181 11.9587 3.16663 12.8561 3.16663 13.833H5.16663ZM5.83329 13.1663H4.49996V15.1663H5.83329V13.1663ZM14.1666 13.1663H5.83329V15.1663H14.1666V13.1663ZM15.5 13.1663H14.1666V15.1663H15.5V13.1663ZM14.3669 12.5492C14.6586 12.897 14.8333 13.3433 14.8333 13.833H16.8333C16.8333 12.8561 16.4818 11.9587 15.8995 11.2642L14.3669 12.5492ZM13.1666 7.49967V9.90541H15.1666V7.49967H13.1666ZM9.99996 4.33301C11.7489 4.33301 13.1666 5.75077 13.1666 7.49967H15.1666C15.1666 4.6462 12.8534 2.33301 9.99996 2.33301V4.33301ZM15.8995 11.2642C15.4 10.6684 15.1666 10.2626 15.1666 9.90541H13.1666C13.1666 11.0668 13.8908 11.9813 14.3669 12.5492L15.8995 11.2642ZM3.16663 13.833C3.16663 14.5694 3.76358 15.1663 4.49996 15.1663V13.1663C4.86815 13.1663 5.16663 13.4648 5.16663 13.833H3.16663ZM15.5 15.1663C16.2363 15.1663 16.8333 14.5694 16.8333 13.833H14.8333C14.8333 13.4648 15.1318 13.1663 15.5 13.1663V15.1663ZM4.83329 9.90541C4.83329 10.2626 4.5999 10.6684 4.10038 11.2642L5.63297 12.5492C6.10913 11.9813 6.83329 11.0668 6.83329 9.90541H4.83329Z" fill="#57A41B"/>
<path d="M11.498 16.5643C11.3594 16.8485 11.1427 17.0875 10.8734 17.2532C10.604 17.4189 10.293 17.5046 9.97677 17.5002C9.66053 17.4957 9.35208 17.4014 9.08744 17.2283C8.82279 17.0551 8.61289 16.8102 8.48223 16.5222" stroke="#57A41B" stroke-width="2" stroke-linecap="round" stroke-linejoin="round"/>
<path d="M10 2.5V3.33333" stroke="#57A41B" stroke-width="2" stroke-linecap="round" stroke-linejoin="round"/>
</svg>
